<svg xmlns="http://www.w3.org/2000/svg" viewBox="0 0 437.68 81.08"><defs><style>.cls-1{fill:#e4ae84;stroke:#231f20;stroke-miterlimit:10;stroke-width:6px;}</style></defs><g id="Layer_2" data-name="Layer 2"><g id="Layer_1-2" data-name="Layer 1"><path class="cls-1" d="M325.66,78.08c-33.3,0-54.09-14.56-75.54-29.58-12.66-8.87-25.75-18-41.72-24.2-39.7-15.34-65.25-2-90,10.9-15.19,7.93-29.55,15.42-46.89,16.67-13.22,1-32.82-2.2-51.19-22.63A100,100,0,0,1,3.93,4.12l.46-.2a99.32,99.32,0,0,0,16.34,25c10.07,11.19,27,24.18,50.78,22.46,17.23-1.24,31.54-8.71,46.69-16.62C143,21.8,168.67,8.41,208.57,23.83c16,6.19,29.15,15.38,41.83,24.26,38.18,26.73,74.24,52,183-4.21l.23.45C385.68,69.1,351.81,78.08,325.66,78.08Z"/></g></g></svg>